<svg width="32" height="32" version="1.1" viewBox="0 0 8.4667 8.4667" xmlns="http://www.w3.org/2000/svg"><path d="m1.3741-2.25e-7c-.76124 0-1.3741.61284-1.3741 1.3741v5.7185c0 .76124.61284 1.3741 1.3741 1.3741h5.7185c.76124 0 1.3741-.61284 1.3741-1.3741v-5.7185c0-.25927-.07125-.50135-.19508-.70784-1.8188 2.2501-2.5967 4.7458-3.3556 6.7673-1.2868-1.4304-2.5019-3.0448-4.1415-3.568l.65862-.57464c1.5083.70015 2.2534 1.3752 3.0592 2.2761.98218-2.4325 2.0621-4.1559 3.1784-5.4404-.1756-.08116-.37131-.12661-.57813-.12661z" fill="#f5d295" stroke-width=".13561"/></svg>
